# xmcd
#
# Track frame offsets: 
#        150
#        18102
#        30700
#        50362
#        67770
#        88460
#        106112
#        120540
#        132592
#        148897
#
# Disc length: 2219 seconds
#
# Revision: 2
# Processed by: cddbd v1.5PL3 Copyright (c) Steve Scherf et al.
# Submitted via: ExactAudioCopy v0.95a5
#
DISCID=8608a90a
DTITLE=New Grass Revival - Anthology
DYEAR=1990
DGENRE=Bluegrass
TTITLE0=Can't Stop Now
TTITLE1=Ain't That Peculiar
TTITLE2=Angel Eyes
TTITLE3=Revival
TTITLE4=Metric Lips
TTITLE5=Reach
TTITLE6=You Plant Your Fields
TTITLE7=Callin' Baton Rouge
TTITLE8=Hold To a Dream
TTITLE9=Friday Night In America
EXTD=
EXTT0=
EXTT1=
EXTT2=
EXTT3=
EXTT4=
EXTT5=
EXTT6=
EXTT7=
EXTT8=
EXTT9=
PLAYORDER=
